<mxfile host="app.diagrams.net" modified="2023-07-20T08:55:12.935Z" agent="Mozilla/5.0 (Windows NT 6.3; Win64; x64) AppleWebKit/537.36 (KHTML, like Gecko) Chrome/112.0.0.0 YaBrowser/23.5.4.674 Yowser/2.5 Safari/537.36" etag="uz5tzX4drMIhEKt41Qli" version="21.6.3" type="device">
  <diagram name="Основной алгоритм" id="zGOJu9pkLYoOOf5PMsBL">
    <mxGraphModel dx="838" dy="433" grid="1" gridSize="10" guides="1" tooltips="1" connect="1" arrows="1" fold="1" page="1" pageScale="1" pageWidth="827" pageHeight="1169" math="0" shadow="0">
      <root>
        <mxCell id="0" />
        <mxCell id="1" parent="0" />
        <UserObject label="&lt;div style=&quot;font-size: 1px&quot;&gt;&lt;font style=&quot;font-size:11.29px;font-family:Arial;color:#000000;direction:ltr;letter-spacing:0px;line-height:120%;opacity:1&quot;&gt;Начало&lt;br/&gt;&lt;/font&gt;&lt;/div&gt;" tags="Flowchart" id="21En_uD2cCSEY8DvqBLg-1">
          <mxCell style="verticalAlign=middle;align=center;vsdxID=1;fillColor=none;gradientColor=none;shape=stencil(tVLLDsIgEPwajhgK8XWu9T82lrZEhGZBW/9eEI2ttV6Mt9mZ2SXDLhG5a6CVhDPn0R5lp0rfELEjnCvTSFQ+ICIKIvLKoqzRnk2Z6haiM6KTvcQJfepbLTYiNnF2TUTG2L3eJ7dWZuDeikW2/mYHPAQNJ8PxYV8m9/y8p06hV46i9eCVNSNNA9aShpdopaEeSa6Tsp3QH6NMgv+SY/YX/xIkgNc6K6V1uoah/r7+QKXTEcUN);strokeColor=#000000;spacingTop=-1;spacingBottom=-1;spacingLeft=-1;spacingRight=-1;points=[[0.5,0,0],[0.5,0.5,0],[1,0.5,0]];labelBackgroundColor=none;rounded=0;html=1;whiteSpace=wrap;" parent="1" vertex="1">
            <mxGeometry x="306" y="58" width="159" height="21" as="geometry" />
          </mxCell>
        </UserObject>
        <UserObject label="&lt;div style=&quot;font-size: 1px&quot;&gt;&lt;font style=&quot;font-size:11.29px;font-family:Arial;color:#000000;direction:ltr;letter-spacing:0px;line-height:120%;opacity:1&quot;&gt;Конец&lt;br/&gt;&lt;/font&gt;&lt;/div&gt;" tags="Flowchart" id="21En_uD2cCSEY8DvqBLg-3">
          <mxCell style="verticalAlign=middle;align=center;vsdxID=16;fillColor=none;gradientColor=none;shape=stencil(tVJBDsIgEHwNRxpko8Zzrf8glrZEhGahtv5eEI1ttV6Mt5md2SXDLoHcNaKVhDPn0Z5kr0rfENgTzpVpJCofEIGCQF5ZlDXazpSJtyI6IzrbS5wwpL5Nto09nF0TXzF254dk1sqMzDvI4Jtb4DFoOB+ND/c6mRenPWUqBuUoWi+8smaiaYG1pOEdWmlRTyTXS9m+lT/mmIf+IcTS//0lRQCvPVZK63QGY32+91BKNwPFDQ==);strokeColor=#000000;spacingTop=-1;spacingBottom=-1;spacingLeft=-1;spacingRight=-1;points=[[0.5,0,0],[0.5,0.5,0],[1,0.5,0]];labelBackgroundColor=none;rounded=0;html=1;whiteSpace=wrap;" parent="1" vertex="1">
            <mxGeometry x="306" y="481" width="159" height="21" as="geometry" />
          </mxCell>
        </UserObject>
        <UserObject label="&lt;div style=&quot;font-size: 1px&quot;&gt;&lt;p style=&quot;align:center;margin-left:0;margin-right:0;margin-top:0px;margin-bottom:0px;text-indent:0;valign:middle;direction:ltr;&quot;&gt;&lt;font style=&quot;font-size:11.29px;font-family:Arial;color:#000000;direction:ltr;letter-spacing:0px;line-height:120%;opacity:1&quot;&gt;Инициализация приложения&lt;/font&gt;&lt;font style=&quot;font-size:11.29px;font-family:Arial;color:#000000;direction:ltr;letter-spacing:0px;line-height:120%;opacity:1&quot;&gt;&lt;br&gt;&lt;/font&gt;&lt;/p&gt;&lt;/div&gt;" tags="Flowchart" id="21En_uD2cCSEY8DvqBLg-4">
          <mxCell style="verticalAlign=middle;align=center;vsdxID=4;fillColor=#e8eef7;gradientColor=none;fillOpacity=0;shape=stencil(nZLdDsIgDIWfprcL0mTG6znfY8mYNCIsDJ2+vZDGn7HMLLs7h34tOQXAatBNr0CKIXh3USO1QQMeQUqyWnkKUQHWgFXnvDp7d7Mt+75JZFJXd08THtwnUocUT3Y7wf7EqCH7g76Lm+A/6EYwuz6Kb8aOjOEVfepLC8ACcX2sGT1hp5MPZVHu14+e48v5smxR5O8dj/ivYP0C);strokeColor=#000000;spacingTop=-1;spacingBottom=-1;spacingLeft=-1;spacingRight=-1;points=[[1,0.5,0],[0.5,0.5,0],[0.5,0,0]];labelBackgroundColor=none;rounded=0;html=1;whiteSpace=wrap;" parent="1" vertex="1">
            <mxGeometry x="306" y="90" width="160" height="40" as="geometry" />
          </mxCell>
        </UserObject>
        <UserObject label="&lt;div style=&quot;font-size: 1px&quot;&gt;&lt;p style=&quot;align:center;margin-left:0;margin-right:0;margin-top:0px;margin-bottom:0px;text-indent:0;valign:middle;direction:ltr;&quot;&gt;&lt;font style=&quot;font-size:11.29px;font-family:Arial;color:#000000;direction:ltr;letter-spacing:0px;line-height:120%;opacity:1&quot;&gt;Считывание входных данных из файла&lt;br&gt;&lt;/font&gt;&lt;/p&gt;&lt;/div&gt;" tags="Flowchart" id="21En_uD2cCSEY8DvqBLg-5">
          <mxCell style="verticalAlign=middle;align=center;vsdxID=3;fillColor=#e8eef7;gradientColor=none;fillOpacity=0;shape=stencil(nZLdDsIgDIWfprcL0mTG6znfY8mYNCIsDJ2+vZDGn7HMLLs7h34tOQXAatBNr0CKIXh3USO1QQMeQUqyWnkKUQHWgFXnvDp7d7Mt+75JZFJXd08THtwnUocUT3Y7wf7EqCH7g76Lm+A/6EYwuz6Kb8aOjOEVfepLC8ACcX2sGT1hp5MPZVHu14+e48v5smxR5O8dj/ivYP0C);strokeColor=#000000;spacingTop=-1;spacingBottom=-1;spacingLeft=-1;spacingRight=-1;points=[[1,0.5,0],[0.5,0.5,0],[0.5,0,0]];labelBackgroundColor=none;rounded=0;html=1;whiteSpace=wrap;" parent="1" vertex="1">
            <mxGeometry x="306" y="146" width="160" height="40" as="geometry" />
          </mxCell>
        </UserObject>
        <UserObject label="&lt;div style=&quot;font-size: 1px&quot;&gt;&lt;p style=&quot;align:center;margin-left:0;margin-right:0;margin-top:0px;margin-bottom:0px;text-indent:0;valign:middle;direction:ltr;&quot;&gt;&lt;font style=&quot;font-size:11.29px;font-family:Arial;color:#000000;direction:ltr;letter-spacing:0px;line-height:120%;opacity:1&quot;&gt;Изначальная случайная&amp;nbsp;&lt;/font&gt;&lt;/p&gt;&lt;p style=&quot;align:center;margin-left:0;margin-right:0;margin-top:0px;margin-bottom:0px;text-indent:0;valign:middle;direction:ltr;&quot;&gt;&lt;font style=&quot;font-size:11.29px;font-family:Arial;color:#000000;direction:ltr;letter-spacing:0px;line-height:120%;opacity:1&quot;&gt;расстановка звёзд&lt;/font&gt;&lt;/p&gt;&lt;/div&gt;" tags="Flowchart" id="21En_uD2cCSEY8DvqBLg-6">
          <mxCell style="verticalAlign=middle;align=center;vsdxID=2;fillColor=#e8eef7;gradientColor=none;fillOpacity=0;shape=stencil(nZLdDsIgDIWfprcL0mTG6znfY8mYNCIsDJ2+vZDGn7HMLLs7h34tOQXAatBNr0CKIXh3USO1QQMeQUqyWnkKUQHWgFXnvDp7d7Mt+75JZFJXd08THtwnUocUT3Y7wf7EqCH7g76Lm+A/6EYwuz6Kb8aOjOEVfepLC8ACcX2sGT1hp5MPZVHu14+e48v5smxR5O8dj/ivYP0C);strokeColor=#000000;spacingTop=-1;spacingBottom=-1;spacingLeft=-1;spacingRight=-1;points=[[1,0.5,0],[0.5,0.5,0],[0.5,0,0]];labelBackgroundColor=none;rounded=0;html=1;whiteSpace=wrap;" parent="1" vertex="1">
            <mxGeometry x="306" y="197" width="160" height="54" as="geometry" />
          </mxCell>
        </UserObject>
        <UserObject label="" tags="Connector" id="21En_uD2cCSEY8DvqBLg-22">
          <mxCell style="vsdxID=13;edgeStyle=none;startArrow=none;endArrow=none;startSize=5;endSize=5;strokeColor=#000000;spacingTop=0;spacingBottom=0;spacingLeft=0;spacingRight=0;verticalAlign=middle;html=1;labelBackgroundColor=#FFFFFF;rounded=0;entryX=0.5;entryY=0;entryDx=0;entryDy=0;entryPerimeter=0;" parent="1" source="21En_uD2cCSEY8DvqBLg-5" target="21En_uD2cCSEY8DvqBLg-6" edge="1">
            <mxGeometry relative="1" as="geometry">
              <mxPoint x="-10" as="offset" />
              <Array as="points" />
            </mxGeometry>
          </mxCell>
        </UserObject>
        <UserObject label="" tags="Connector" id="21En_uD2cCSEY8DvqBLg-23">
          <mxCell style="vsdxID=6;edgeStyle=none;startArrow=none;endArrow=none;startSize=5;endSize=5;strokeColor=#000000;spacingTop=0;spacingBottom=0;spacingLeft=0;spacingRight=0;verticalAlign=middle;html=1;labelBackgroundColor=#FFFFFF;rounded=0;exitX=0.503;exitY=0.984;exitDx=0;exitDy=0;exitPerimeter=0;entryX=0.5;entryY=0;entryDx=0;entryDy=0;entryPerimeter=0;" parent="1" source="21En_uD2cCSEY8DvqBLg-1" target="21En_uD2cCSEY8DvqBLg-4" edge="1">
            <mxGeometry relative="1" as="geometry">
              <mxPoint x="10" as="offset" />
              <Array as="points" />
            </mxGeometry>
          </mxCell>
        </UserObject>
        <UserObject label="" tags="Connector" id="21En_uD2cCSEY8DvqBLg-27">
          <mxCell style="vsdxID=12;edgeStyle=none;startArrow=none;endArrow=none;startSize=5;endSize=5;strokeColor=#000000;spacingTop=0;spacingBottom=0;spacingLeft=0;spacingRight=0;verticalAlign=middle;html=1;labelBackgroundColor=#FFFFFF;rounded=0;exitX=0.5;exitY=1;exitDx=0;exitDy=0;exitPerimeter=0;entryX=0.5;entryY=0;entryDx=0;entryDy=0;entryPerimeter=0;" parent="1" source="21En_uD2cCSEY8DvqBLg-4" target="21En_uD2cCSEY8DvqBLg-5" edge="1">
            <mxGeometry relative="1" as="geometry">
              <mxPoint x="10" as="offset" />
              <Array as="points" />
            </mxGeometry>
          </mxCell>
        </UserObject>
        <mxCell id="21En_uD2cCSEY8DvqBLg-28" parent="1" vertex="1">
          <mxGeometry x="386" y="167" as="geometry" />
        </mxCell>
        <UserObject label="" tags="Connector" id="21En_uD2cCSEY8DvqBLg-36">
          <mxCell style="vsdxID=18;edgeStyle=none;startArrow=none;endArrow=none;startSize=5;endSize=5;strokeColor=#000000;spacingTop=0;spacingBottom=0;spacingLeft=0;spacingRight=0;verticalAlign=middle;html=1;labelBackgroundColor=#FFFFFF;rounded=0;exitX=0.5;exitY=0;exitDx=0;exitDy=0;exitPerimeter=0;entryX=0.491;entryY=-0.002;entryDx=0;entryDy=0;entryPerimeter=0;" parent="1" source="21En_uD2cCSEY8DvqBLg-3" target="oo0jHSA07mFdQwOUe6dj-1" edge="1">
            <mxGeometry relative="1" as="geometry">
              <mxPoint x="10" as="offset" />
              <Array as="points" />
              <mxPoint x="386.0000000000002" y="469" as="targetPoint" />
            </mxGeometry>
          </mxCell>
        </UserObject>
        <UserObject label="&lt;div style=&quot;font-size: 1px&quot;&gt;&lt;p style=&quot;align:center;margin-left:0;margin-right:0;margin-top:0px;margin-bottom:0px;text-indent:0;valign:middle;direction:ltr;&quot;&gt;&lt;font style=&quot;font-size:11.29px;font-family:Arial;color:#000000;direction:ltr;letter-spacing:0px;line-height:120%;opacity:1&quot;&gt;Изначальная&lt;/font&gt;&lt;/p&gt;&lt;p style=&quot;align:center;margin-left:0;margin-right:0;margin-top:0px;margin-bottom:0px;text-indent:0;valign:middle;direction:ltr;&quot;&gt;&lt;font style=&quot;font-size:11.29px;font-family:Arial;color:#000000;direction:ltr;letter-spacing:0px;line-height:120%;opacity:1&quot;&gt;расстановка планет&lt;/font&gt;&lt;/p&gt;&lt;/div&gt;" tags="Flowchart" id="nC1rRcF0lCRRNz_p822h-1">
          <mxCell style="verticalAlign=middle;align=center;vsdxID=2;fillColor=#e8eef7;gradientColor=none;fillOpacity=0;shape=stencil(nZLdDsIgDIWfprcL0mTG6znfY8mYNCIsDJ2+vZDGn7HMLLs7h34tOQXAatBNr0CKIXh3USO1QQMeQUqyWnkKUQHWgFXnvDp7d7Mt+75JZFJXd08THtwnUocUT3Y7wf7EqCH7g76Lm+A/6EYwuz6Kb8aOjOEVfepLC8ACcX2sGT1hp5MPZVHu14+e48v5smxR5O8dj/ivYP0C);strokeColor=#000000;spacingTop=-1;spacingBottom=-1;spacingLeft=-1;spacingRight=-1;points=[[1,0.5,0],[0.5,0.5,0],[0.5,0,0]];labelBackgroundColor=none;rounded=0;html=1;whiteSpace=wrap;" vertex="1" parent="1">
            <mxGeometry x="307" y="264" width="160" height="36" as="geometry" />
          </mxCell>
        </UserObject>
        <UserObject label="" tags="Connector" id="nC1rRcF0lCRRNz_p822h-2">
          <mxCell style="vsdxID=13;edgeStyle=none;startArrow=none;endArrow=none;startSize=5;endSize=5;strokeColor=#000000;spacingTop=0;spacingBottom=0;spacingLeft=0;spacingRight=0;verticalAlign=middle;html=1;labelBackgroundColor=#FFFFFF;rounded=0;entryX=0.495;entryY=-0.004;entryDx=0;entryDy=0;entryPerimeter=0;exitX=0.503;exitY=0.998;exitDx=0;exitDy=0;exitPerimeter=0;" edge="1" parent="1" source="21En_uD2cCSEY8DvqBLg-6" target="nC1rRcF0lCRRNz_p822h-1">
            <mxGeometry relative="1" as="geometry">
              <mxPoint x="-10" as="offset" />
              <Array as="points" />
              <mxPoint x="396" y="264" as="sourcePoint" />
              <mxPoint x="396" y="275" as="targetPoint" />
            </mxGeometry>
          </mxCell>
        </UserObject>
        <mxCell id="fwXIKn2RToGKzF52MJLK-1" value="" style="verticalAlign=middle;align=center;vsdxID=8;fillColor=none;gradientColor=none;shape=stencil(UzV2Ls5ILEhVNTIoLinKz04tz0wpyVA1dlE1MsrMy0gtyiwBslSNXVWNndPyi1LTi/JL81Ig/IJEkEoQKze/DGRCBUSfAUiHkUElhGdoAOG7QZTmZOYhKYVJkqXYyBS3WktTPQtLFNV4DDbRMzQkVi3xTsDrMyADEXxpmTk5kNBHlkcPbqAQJKqMXQE=);strokeColor=#000000;spacingTop=-1;spacingBottom=-1;spacingLeft=-1;spacingRight=-1;points=[[1,0.5,0],[0.5,0.5,0],[0.5,0,0]];labelBackgroundColor=none;rounded=0;html=1;whiteSpace=wrap;fontSize=16;" vertex="1" parent="1">
          <mxGeometry x="307" y="314.38" width="160" height="27.25" as="geometry" />
        </mxCell>
        <mxCell id="fwXIKn2RToGKzF52MJLK-2" value="Цикл программы" style="text;html=1;strokeColor=none;fillColor=none;align=center;verticalAlign=middle;whiteSpace=wrap;rounded=0;" vertex="1" parent="1">
          <mxGeometry x="307" y="314.38" width="160" height="27.25" as="geometry" />
        </mxCell>
        <UserObject label="" tags="Connector" id="fwXIKn2RToGKzF52MJLK-5">
          <mxCell style="vsdxID=25;edgeStyle=none;startArrow=none;endArrow=none;startSize=5;endSize=5;strokeColor=#000000;spacingTop=0;spacingBottom=0;spacingLeft=0;spacingRight=0;verticalAlign=middle;html=1;labelBackgroundColor=#FFFFFF;rounded=0;exitX=0.498;exitY=1.004;exitDx=0;exitDy=0;exitPerimeter=0;entryX=0.5;entryY=0;entryDx=0;entryDy=0;entryPerimeter=0;" edge="1" parent="1" source="nC1rRcF0lCRRNz_p822h-1" target="fwXIKn2RToGKzF52MJLK-1">
            <mxGeometry relative="1" as="geometry">
              <mxPoint x="10" y="-1" as="offset" />
              <Array as="points" />
              <mxPoint x="396" y="390" as="sourcePoint" />
              <mxPoint x="410" y="310" as="targetPoint" />
            </mxGeometry>
          </mxCell>
        </UserObject>
        <mxCell id="oo0jHSA07mFdQwOUe6dj-1" value="&lt;div style=&quot;font-size: 16px;&quot;&gt;&lt;p style=&quot;margin: 0px; text-indent: 0px; direction: ltr; font-size: 16px;&quot;&gt;&lt;font style=&quot;font-size: 16px; font-family: &amp;quot;Times New Roman&amp;quot;; color: rgb(0, 0, 0); direction: ltr; letter-spacing: 0px; line-height: 120%; opacity: 1;&quot;&gt;&lt;br style=&quot;font-size: 16px;&quot;&gt;&lt;/font&gt;&lt;/p&gt;&lt;/div&gt;" style="verticalAlign=middle;align=center;vsdxID=9;fillColor=none;gradientColor=none;shape=stencil(UzV2Ls5ILEhVNTIoLinKz04tz0wpyVA1dlE1MsrMy0gtyiwBslSNXVWNndPyi1LTi/JL81Ig/IJEkEoQKze/DGRCBUSfAUiHkUElhGdoAOG7QZTmZOYhKYVJkqXYyBS3WktzPWMLFNV4DDbSMzMiVi3xTsDrMyADEXxpmTk5kNBHlkcPbqAQJKqMXQE=);strokeColor=#000000;spacingTop=-1;spacingBottom=-1;spacingLeft=-1;spacingRight=-1;flipV=1;points=[[1,0.5,0],[0.5,0.5,0],[0.5,0,0]];labelBackgroundColor=none;rounded=0;html=1;whiteSpace=wrap;fontSize=16;" vertex="1" parent="1">
          <mxGeometry x="307" y="442" width="160" height="27" as="geometry" />
        </mxCell>
        <mxCell id="oo0jHSA07mFdQwOUe6dj-2" value="Цикл программы" style="text;html=1;strokeColor=none;fillColor=none;align=center;verticalAlign=middle;whiteSpace=wrap;rounded=0;" vertex="1" parent="1">
          <mxGeometry x="307" y="449" width="160" height="10" as="geometry" />
        </mxCell>
        <UserObject label="&lt;div style=&quot;&quot;&gt;&lt;p style=&quot;margin: 0px; text-indent: 0px; direction: ltr;&quot;&gt;&lt;font face=&quot;Arial&quot;&gt;&lt;span style=&quot;font-size: 11.29px;&quot;&gt;Отображение звёзд&lt;/span&gt;&lt;/font&gt;&lt;/p&gt;&lt;/div&gt;" tags="Flowchart" id="yTEDwYwLFonb2tVMX4cy-1">
          <mxCell style="verticalAlign=middle;align=center;vsdxID=2;fillColor=#e8eef7;gradientColor=none;fillOpacity=0;shape=stencil(nZLdDsIgDIWfprcL0mTG6znfY8mYNCIsDJ2+vZDGn7HMLLs7h34tOQXAatBNr0CKIXh3USO1QQMeQUqyWnkKUQHWgFXnvDp7d7Mt+75JZFJXd08THtwnUocUT3Y7wf7EqCH7g76Lm+A/6EYwuz6Kb8aOjOEVfepLC8ACcX2sGT1hp5MPZVHu14+e48v5smxR5O8dj/ivYP0C);strokeColor=#000000;spacingTop=-1;spacingBottom=-1;spacingLeft=-1;spacingRight=-1;points=[[1,0.5,0],[0.5,0.5,0],[0.5,0,0]];labelBackgroundColor=none;rounded=0;html=1;whiteSpace=wrap;" vertex="1" parent="1">
            <mxGeometry x="307" y="352" width="160" height="23" as="geometry" />
          </mxCell>
        </UserObject>
        <UserObject label="" tags="Connector" id="yTEDwYwLFonb2tVMX4cy-2">
          <mxCell style="vsdxID=6;edgeStyle=none;startArrow=none;endArrow=none;startSize=5;endSize=5;strokeColor=#000000;spacingTop=0;spacingBottom=0;spacingLeft=0;spacingRight=0;verticalAlign=middle;html=1;labelBackgroundColor=#FFFFFF;rounded=0;exitX=0.496;exitY=0.997;exitDx=0;exitDy=0;exitPerimeter=0;entryX=0.496;entryY=-0.002;entryDx=0;entryDy=0;entryPerimeter=0;" edge="1" parent="1" source="fwXIKn2RToGKzF52MJLK-1" target="yTEDwYwLFonb2tVMX4cy-1">
            <mxGeometry relative="1" as="geometry">
              <mxPoint x="10" as="offset" />
              <Array as="points" />
              <mxPoint x="396" y="355" as="sourcePoint" />
              <mxPoint x="396" y="366" as="targetPoint" />
            </mxGeometry>
          </mxCell>
        </UserObject>
        <UserObject label="&lt;div style=&quot;&quot;&gt;&lt;p style=&quot;margin: 0px; text-indent: 0px; direction: ltr;&quot;&gt;Отображение&amp;nbsp;&lt;/p&gt;&lt;p style=&quot;margin: 0px; text-indent: 0px; direction: ltr;&quot;&gt;движения планет&lt;/p&gt;&lt;/div&gt;" tags="Flowchart" id="yTEDwYwLFonb2tVMX4cy-3">
          <mxCell style="verticalAlign=middle;align=center;vsdxID=2;fillColor=#e8eef7;gradientColor=none;fillOpacity=0;shape=stencil(nZLdDsIgDIWfprcL0mTG6znfY8mYNCIsDJ2+vZDGn7HMLLs7h34tOQXAatBNr0CKIXh3USO1QQMeQUqyWnkKUQHWgFXnvDp7d7Mt+75JZFJXd08THtwnUocUT3Y7wf7EqCH7g76Lm+A/6EYwuz6Kb8aOjOEVfepLC8ACcX2sGT1hp5MPZVHu14+e48v5smxR5O8dj/ivYP0C);strokeColor=#000000;spacingTop=-1;spacingBottom=-1;spacingLeft=-1;spacingRight=-1;points=[[1,0.5,0],[0.5,0.5,0],[0.5,0,0]];labelBackgroundColor=none;rounded=0;html=1;whiteSpace=wrap;" vertex="1" parent="1">
            <mxGeometry x="307" y="390" width="160" height="40" as="geometry" />
          </mxCell>
        </UserObject>
        <UserObject label="" tags="Connector" id="yTEDwYwLFonb2tVMX4cy-4">
          <mxCell style="vsdxID=6;edgeStyle=none;startArrow=none;endArrow=none;startSize=5;endSize=5;strokeColor=#000000;spacingTop=0;spacingBottom=0;spacingLeft=0;spacingRight=0;verticalAlign=middle;html=1;labelBackgroundColor=#FFFFFF;rounded=0;entryX=0.5;entryY=0;entryDx=0;entryDy=0;entryPerimeter=0;exitX=0.498;exitY=1.005;exitDx=0;exitDy=0;exitPerimeter=0;" edge="1" parent="1" source="yTEDwYwLFonb2tVMX4cy-1" target="yTEDwYwLFonb2tVMX4cy-3">
            <mxGeometry relative="1" as="geometry">
              <mxPoint x="10" as="offset" />
              <Array as="points" />
              <mxPoint x="400" y="380" as="sourcePoint" />
              <mxPoint x="395" y="393" as="targetPoint" />
            </mxGeometry>
          </mxCell>
        </UserObject>
        <UserObject label="" tags="Connector" id="k4L6Iqc94-EdS10WBFFT-1">
          <mxCell style="vsdxID=18;edgeStyle=none;startArrow=none;endArrow=none;startSize=5;endSize=5;strokeColor=#000000;spacingTop=0;spacingBottom=0;spacingLeft=0;spacingRight=0;verticalAlign=middle;html=1;labelBackgroundColor=#FFFFFF;rounded=0;exitX=0.495;exitY=0.996;exitDx=0;exitDy=0;exitPerimeter=0;entryX=0.497;entryY=0.997;entryDx=0;entryDy=0;entryPerimeter=0;" edge="1" parent="1" source="oo0jHSA07mFdQwOUe6dj-1" target="yTEDwYwLFonb2tVMX4cy-3">
            <mxGeometry relative="1" as="geometry">
              <mxPoint x="10" as="offset" />
              <Array as="points" />
              <mxPoint x="396" y="443" as="sourcePoint" />
              <mxPoint x="396" y="431" as="targetPoint" />
            </mxGeometry>
          </mxCell>
        </UserObject>
      </root>
    </mxGraphModel>
  </diagram>
</mxfile>
